# xmcd
#
# Track frame offsets: 
#        150
#        20645
#        39290
#        60188
#        86965
#        113568
#        139068
#        163703
#        191425
#        218895
#        221498
#
# Disc length: 3239 seconds
#
# Revision: 2
# Processed by: cddbd v1.5.2PL0 Copyright (c) Steve Scherf et al.
# Submitted via: ExactAudioCopy v0.99pb5
#
DISCID=930ca50b
DTITLE=Freddy Cole - Always
DYEAR=1995
DGENRE=Vocal
TTITLE0=Isn't She Lovely
TTITLE1=You Must Believe In Spring
TTITLE2=The Rose
TTITLE3=Remember
TTITLE4=I'm A Fool To Want You
TTITLE5=If
TTITLE6=Maybe You'll Be There
TTITLE7=Until It's Time For You To Go
TTITLE8=Count To Ten
TTITLE9=Interlude
TTITLE10=This Is Always
EXTD=Record Label:  Fantasy\nCatalog Number:  FANTASY FCD 9670-2\nReco
EXTD=rding Dates:  December 1994\nRelease Date:  1995
EXTT0=Freddy Cole:\tVocal\nCyrus Chestnut:\tPiano\nTom Hubbard:\tBass\n
EXTT0=Yoron Israel:\tDrums\nJavon Jackson:\tTenor Saxophone\nAntonio H
EXTT0=art:\tAlto Saxophone\nRobin Eubanks:\tTrombone\nByron Stripling:
EXTT0=\tTrumpet
EXTT1=Sanford Allen:\t\tViolin\nLesa Terry:\t\tViolin\nAl Brown:\t\t\t
EXTT1=Viola\nEileen Folson:\t\tCello\nGrover Washington, Jr.:\tSoprano
EXTT1=Saxophone\nFreddy Cole:\t\tVocal\nCyrus Chestnut:\t\tPiano\nGeo
EXTT1=rge Mraz:\t\tBass\nYoron Israel:\t\tDrums
EXTT2=Antonio Hart:\tAlto Saxophone\nFreddy Cole:\tVocal\nCyrus Chestn
EXTT2=ut:\tPiano\nRuss Kunkel:\tDrums\nLionel Cole:\tBass, Keyboards, 
EXTT2=all other instruments\n
EXTT3=Mel Martin:\tAlto Flute\nJoe Locke:\tVibraphone\nFreddy Cole:\tV
EXTT3=ocal\nCyrus Chestnut:\tPiano\nTom Hubbard:\tBass\nYoron Israel:\t
EXTT3=Drums\n
EXTT4=Roger Rosenberg:\tBaritone Saxophone, Bass Clarinet\nFrank Perow
EXTT4=sky:\tSoprano and Tenor Saxophones, Flute\nJef Scott:\t\tFrench Ho
EXTT4=rn\nMel Martin:\tSolo Flute\nFreddy Cole:\tVocal\nCyrus Chestnut
EXTT4=:\tPiano\nTom Hubbard:\tBass\nYoron Israel:\tDrums\nSteve Berrio
EXTT4=s:\tPercussion\n
EXTT5=Sanford Allen:\t\tViolin\nLesa Terry:\t\tViolin\nAl Brown:\t\t\t
EXTT5=Viola\nEileen Folson:\t\tCello\nGrover Washington, Jr.:\tSoprano
EXTT5=Saxophone\nFreddy Cole:\t\tVocal\nCyrus Chestnut:\t\tPiano\nTom
EXTT5=Hubbard:\t\tBass\nYoron Israel:\t\tDrums\n
EXTT6=Robin Eubanks:\tTrombone\nAntonio Hart:\tAlto Saxophone\nByron S
EXTT6=tripling:\tFlugelhorn\nFreddy Cole:\tVocal\nCyrus Chestnut:\tPia
EXTT6=no\nTom Hubbard:\tBass\nYoron Israel:\tDrums\n
EXTT7=Freddy Cole:\tVocal\nCyrus Chestnut:\tPiano
EXTT8=Freddy Cole:\tVocal\nTim Pierce:\tAcoustic and Electric Guitars\nG
EXTT8=erri Sutyak:\tCello\nRuss Kunkel:\tDrums\nSteve Berrios:\tPercus
EXTT8=sion\nLionel Cole:\tKeyboards, all other instruments\n
EXTT9=Sanford Allen:\tViolin\nLesa Terry:\tViolin\nAl Brown:\t\tViola\n
EXTT9=Eileen Folson:\tCello\nByron Stripling:\tFlugelhorn\nRobin Euban
EXTT9=ks:\tTrombone\nAntonio Hart:\tAlto Saxophone\nCyrus Chestnut:\tP
EXTT9=iano\nTom Hubbard:\tBass\nYoron Israel:\tDrums\n
EXTT10=Sanford Allen:\tViolin\nLesa Terry:\tViolin\nAl Brown:\t\tViola
EXTT10=\nEileen Folson:\tCello\nByron Stripling:\tFlugelhorn\nRobin Eu
EXTT10=banks:\tTrombone\nAntonio Hart:\tAlto Saxophone\nFreddy Cole:\t
EXTT10=Vocal\nCyrus Chestnut:\tPiano\nTom Hubbard:\tBass\nYoron Israel
EXTT10=:\tDrums\n
PLAYORDER=
